<?xml version="1.0"?>
<svg xmlns="http://www.w3.org/2000/svg" id="decisionTree" width="4900" height="640">
  <!-- Arrow marker -->
  <defs>
    <marker id="arrow" markerWidth="10" markerHeight="10" refX="6" refY="3" orient="auto">
      <path d="M0,0 L0,6 L6,3 z" fill="#2E7D32"/>
    </marker>
  </defs>

  <!-- A[Start] -->
  <g class="node" data-step="A">
    <rect x="100" y="100" width="120" height="50" rx="10" fill="#388E3C"/>
    <text x="160" y="125" text-anchor="middle" fill="white">
      Start
    </text>
  </g>

  <!-- B{Is the area safe to inspect?} -->
  <g class="node" data-step="B">
    <rect x="400" y="100" width="220" height="50" rx="10" fill="#388E3C"/>
    <text x="510" y="125" text-anchor="middle" fill="white">
      Is the area safe to inspect?
    </text>
  </g>

  <!-- A->B (Check Environment label) -->
  <text x="250" y="90" fill="#1B5E20" font-size="12" class="roguetext">
    Check environment
  </text>
  <line x1="220" y1="125" x2="400" y2="125" stroke="#2E7D32" stroke-width="2" marker-end="url(#arrow)"/>

  <!-- C[Wear protective gear] (Y from B) -->
  <g class="node" data-step="C">
    <rect x="700" y="60" width="180" height="40" rx="10" fill="#388E3C"/>
    <text x="790" y="85" text-anchor="middle" fill="white">
      Wear protective gear
    </text>
  </g>
  <circle cx="600" cy="105" r="15" fill="#388E3C"/>
  <text x="600" y="110" fill="white" font-size="12">Y</text>
  <line x1="600" y1="125" x2="700" y2="80" stroke="#2E7D32" stroke-width="2" marker-end="url(#arrow)"/>

  <!-- D[Shut off water supply if needed] (No from B) -->
  <g class="node" data-step="D">
    <rect x="700" y="150" width="230" height="40" rx="10" fill="#388E3C"/>
    <text x="815" y="175" text-anchor="middle" fill="white">
      Shut off water supply if needed
    </text>
  </g>
  <circle cx="600" cy="145" r="15" fill="#388E3C"/>
  <text x="600" y="150" fill="white" font-size="12">N</text>
  <line x1="600" y1="125" x2="700" y2="170" stroke="#2E7D32" stroke-width="2" marker-end="url(#arrow)"/>

  <!-- E[Call for professional help if urgent] -->
  <g class="node" data-step="E">
    <rect x="950" y="150" width="200" height="40" rx="10" fill="#388E3C"/>
    <text x="1050" y="175" text-anchor="middle" fill="white">
      Call for professional help (if urgent)
    </text>
  </g>
  <!-- D->E -->
  <line x1="930" y1="170" x2="950" y2="170" stroke="#2E7D32" stroke-width="2" marker-end="url(#arrow)"/>

  <!-- F[Initial inspection] -->
  <g class="node" data-step="F">
    <rect x="950" y="60" width="180" height="40" rx="10" fill="#388E3C"/>
    <text x="1040" y="85" text-anchor="middle" fill="white">
      Initial inspection
    </text>
  </g>
  <!-- C->F -->
  <line x1="885" y1="80" x2="950" y2="80" stroke="#2E7D32" stroke-width="2" marker-end="url(#arrow)"/>

  <!-- G[Check water supply status] -->
  <g class="node" data-step="G">
    <rect x="1200" y="60" width="180" height="40" rx="10" fill="#388E3C"/>
    <text x="1290" y="85" text-anchor="middle" fill="white">
      Check water supply status
    </text>
  </g>
  <!-- F->G -->
  <line x1="1130" y1="80" x2="1200" y2="80" stroke="#2E7D32" stroke-width="2" marker-end="url(#arrow)"/>

  <!-- H[Check main valve] (If supply is partially ON) -->
  <g class="node" data-step="H">
    <rect x="1450" y="20" width="140" height="40" rx="10" fill="#388E3C"/>
    <text x="1520" y="45" text-anchor="middle" fill="white">
      Check main valve
    </text>
  </g>
  <circle cx="1335" cy="55" r="25" fill="#388E3C"/>
  <text x="1320" y="60" fill="white" font-size="10">Some Flow</text>
  <line x1="1310" y1="80" x2="1450" y2="50" stroke="#2E7D32" stroke-width="2" marker-end="url(#arrow)"/>

  <!-- I[Open main valve] (If no supply) -->
  <g class="node" data-step="I">
    <rect x="1450" y="100" width="140" height="40" rx="10" fill="#388E3C"/>
    <text x="1520" y="125" text-anchor="middle" fill="white">
      Open main valve
    </text>
  </g>
  <circle cx="1335" cy="115" r="25" fill="#388E3C"/>
  <text x="1315" y="120" fill="white" font-size="10">No Flow</text>
  <line x1="1310" y1="80" x2="1450" y2="100" stroke="#2E7D32" stroke-width="2" marker-end="url(#arrow)"/>

  <!-- I->H -->
  <line x1="1520" y1="140" x2="1500" y2="60" stroke="#2E7D32" stroke-width="2" marker-end="url(#arrow)"/>

  <!-- J{Is water line clear?} -->
  <g class="node" data-step="J">
    <rect x="1650" y="20" width="160" height="40" rx="10" fill="#388E3C"/>
    <text x="1730" y="45" text-anchor="middle" fill="white">
      Is water line clear?
    </text>
  </g>
  <!-- H->J -->
  <line x1="1590" y1="40" x2="1650" y2="40" stroke="#2E7D32" stroke-width="2" marker-end="url(#arrow)"/>

  <!-- K[Check water flow] (Y from J) -->
  <g class="node" data-step="K">
    <rect x="1950" y="0" width="120" height="40" rx="10" fill="#388E3C"/>
    <text x="2010" y="25" text-anchor="middle" fill="white">
      Check flow
    </text>
  </g>
  <circle cx="1820" cy="31" r="15" fill="#388E3C"/>
  <text x="1820" y="36" fill="white" font-size="12">Y</text>
  <line x1="1830" y1="48" x2="1950" y2="20" stroke="#2E7D32" stroke-width="2" marker-end="url(#arrow)"/>

  <!-- L[Flush or clear blockage] (N from J) -->
  <g class="node" data-step="L">
    <rect x="1950" y="60" width="180" height="40" rx="10" fill="#388E3C"/>
    <text x="2040" y="85" text-anchor="middle" fill="white">
      Flush or clear blockage
    </text>
  </g>
  <circle cx="1820" cy="66" r="15" fill="#388E3C"/>
  <text x="1820" y="71" fill="white" font-size="12">N</text>
  <line x1="1830" y1="48" x2="1950" y2="80" stroke="#2E7D32" stroke-width="2" marker-end="url(#arrow)"/>
  <!-- L->K -->
  <line x1="2040" y1="100" x2="2010" y2="40" stroke="#2E7D32" stroke-width="2" marker-end="url(#arrow)"/>

  <!-- M{Adequate flow?} -->
  <g class="node" data-step="M">
    <rect x="2150" y="30" width="180" height="40" rx="10" fill="#388E3C"/>
    <text x="2240" y="55" text-anchor="middle" fill="white">
      Adequate flow?
    </text>
  </g>
  <!-- K->M -->
  <line x1="2070" y1="20" x2="2150" y2="50" stroke="#2E7D32" stroke-width="2" marker-end="url(#arrow)"/>

  <!-- N[Check pressure or next step] (Y from M) -->
  <g class="node" data-step="N">
    <rect x="2450" y="0" width="180" height="40" rx="10" fill="#388E3C"/>
    <text x="2540" y="25" text-anchor="middle" fill="white">
      Check pressure / next step
    </text>
  </g>
  <circle cx="2350" cy="40" r="15" fill="#388E3C"/>
  <text x="2350" y="45" fill="white" font-size="12">Y</text>
  <line x1="2350" y1="50" x2="2450" y2="20" stroke="#2E7D32" stroke-width="2" marker-end="url(#arrow)"/>

  <!-- O[Fix or replace as needed] (No from M) -->
  <g class="node" data-step="O">
    <rect x="2450" y="60" width="200" height="40" rx="10" fill="#388E3C"/>
    <text x="2550" y="85" text-anchor="middle" fill="white">
      Fix or replace as needed
    </text>
  </g>
  <circle cx="2350" cy="80" r="15" fill="#388E3C"/>
  <text x="2350" y="85" fill="white" font-size="12">N</text>
  <line x1="2350" y1="50" x2="2450" y2="80" stroke="#2E7D32" stroke-width="2" marker-end="url(#arrow)"/>
  <!-- O->N -->
  <line x1="2550" y1="100" x2="2540" y2="40" stroke="#2E7D32" stroke-width="2" marker-end="url(#arrow)"/>

  <!-- P{Water supply stable?} -->
  <g class="node" data-step="P">
    <rect x="2700" y="30" width="180" height="40" rx="10" fill="#388E3C"/>
    <text x="2790" y="55" text-anchor="middle" fill="white">
      Water supply stable?
    </text>
  </g>
  <!-- N->P -->
  <line x1="2590" y1="20" x2="2700" y2="50" stroke="#2E7D32" stroke-width="2" marker-end="url(#arrow)"/>

  <!-- Q[Check for additional leaks] (Y) -->
  <g class="node" data-step="Q">
    <rect x="2950" y="0" width="200" height="40" rx="10" fill="#388E3C"/>
    <text x="3050" y="25" text-anchor="middle" fill="white">
      Check for additional leaks
    </text>
  </g>
  <circle cx="2860" cy="40" r="15" fill="#388E3C"/>
  <text x="2860" y="45" fill="white" font-size="12">Y</text>
  <line x1="2860" y1="50" x2="2950" y2="20" stroke="#2E7D32" stroke-width="2" marker-end="url(#arrow)"/>

  <!-- R[Major fix or replacement] (No) -->
  <g class="node" data-step="R">
    <rect x="2950" y="60" width="180" height="40" rx="10" fill="#388E3C"/>
    <text x="3040" y="85" text-anchor="middle" fill="white">
      Major fix or replacement
    </text>
  </g>
  <circle cx="2860" cy="80" r="15" fill="#388E3C"/>
  <text x="2860" y="85" fill="white" font-size="12">N</text>
  <line x1="2860" y1="50" x2="2950" y2="80" stroke="#2E7D32" stroke-width="2" marker-end="url(#arrow)"/>

  <!-- S{Priority level high?} -->
  <g class="node" data-step="S">
    <rect x="3200" y="30" width="180" height="40" rx="10" fill="#388E3C"/>
    <text x="3290" y="55" text-anchor="middle" fill="white">
      Priority level high?
    </text>
  </g>
  <!-- Q->S and R->S -->
  <line x1="3130" y1="20" x2="3200" y2="50" stroke="#2E7D32" stroke-width="2" marker-end="url(#arrow)"/>
  <line x1="3070" y1="80" x2="3200" y2="50" stroke="#2E7D32" stroke-width="2" marker-end="url(#arrow)"/>

  <!-- T[Urgent fix / expedite repair] (Y) -->
  <g class="node" data-step="T">
    <rect x="3450" y="0" width="200" height="40" rx="10" fill="#388E3C"/>
    <text x="3550" y="25" text-anchor="middle" fill="white">
      Urgent fix / expedite repair
    </text>
  </g>
  <circle cx="3350" cy="40" r="15" fill="#388E3C"/>
  <text x="3350" y="45" fill="white" font-size="12">Y</text>
  <line x1="3350" y1="50" x2="3450" y2="20" stroke="#2E7D32" stroke-width="2" marker-end="url(#arrow)"/>

  <!-- U[Plan thorough fix] (No) -->
  <g class="node" data-step="U">
    <rect x="3450" y="60" width="180" height="40" rx="10" fill="#388E3C"/>
    <text x="3540" y="85" text-anchor="middle" fill="white">
      Plan thorough fix
    </text>
  </g>
  <circle cx="3350" cy="80" r="15" fill="#388E3C"/>
  <text x="3350" y="85" fill="white" font-size="12">N</text>
  <line x1="3350" y1="50" x2="3450" y2="80" stroke="#2E7D32" stroke-width="2" marker-end="url(#arrow)"/>

  <!-- V{Repair approach} -->
  <g class="node" data-step="V">
    <rect x="3700" y="60" width="180" height="40" rx="10" fill="#388E3C"/>
    <text x="3790" y="85" text-anchor="middle" fill="white">
      Repair approach
    </text>
  </g>
  <!-- U->V -->
  <line x1="3610" y1="80" x2="3700" y2="80" stroke="#2E7D32" stroke-width="2" marker-end="url(#arrow)"/>

  <!-- W[Targeted repair] (Focused) -->
  <g class="node" data-step="W">
    <rect x="3950" y="20" width="220" height="40" rx="10" fill="#388E3C"/>
    <text x="4060" y="45" text-anchor="middle" fill="white">
      Targeted repair
    </text>
  </g>
  <ellipse cx="3893" cy="60" rx="35" ry="18" fill="#388E3C"/>
  <text x="3875" y="65" fill="white" font-size="12">Focused</text>
  <line x1="3900" y1="80" x2="3950" y2="40" stroke="#2E7D32" stroke-width="2" marker-end="url(#arrow)"/>

  <!-- X[Full system check] (Detailed) -->
  <g class="node" data-step="X">
    <rect x="3950" y="100" width="180" height="40" rx="10" fill="#388E3C"/>
    <text x="4040" y="125" text-anchor="middle" fill="white">
      Full system check
    </text>
  </g>
  <ellipse cx="3893" cy="100" rx="35" ry="18" fill="#388E3C"/>
  <text x="3875" y="105" fill="white" font-size="12">Detailed</text>
  <line x1="3900" y1="80" x2="3950" y2="120" stroke="#2E7D32" stroke-width="2" marker-end="url(#arrow)"/>

  <!-- Y[Perform final fix] -->
  <g class="node" data-step="Y">
    <rect x="4200" y="60" width="160" height="40" rx="10" fill="#388E3C"/>
    <text x="4280" y="85" text-anchor="middle" fill="white">
      Perform final fix
    </text>
  </g>
  <!-- W->Y, X->Y -->
  <line x1="4110" y1="40" x2="4200" y2="80" stroke="#2E7D32" stroke-width="2" marker-end="url(#arrow)"/>
  <line x1="4060" y1="120" x2="4200" y2="80" stroke="#2E7D32" stroke-width="2" marker-end="url(#arrow)"/>

  <!-- Z[Test system] -->
  <g class="node" data-step="Z">
    <rect x="4350" y="60" width="120" height="40" rx="10" fill="#388E3C"/>
    <text x="4410" y="85" text-anchor="middle" fill="white">
      Test system
    </text>
  </g>
  <!-- Y->Z -->
  <line x1="4320" y1="80" x2="4350" y2="80" stroke="#2E7D32" stroke-width="2" marker-end="url(#arrow)"/>

  <!-- AA[Monitor system] -->
  <g class="node" data-step="AA">
    <rect x="4500" y="60" width="160" height="40" rx="10" fill="#388E3C"/>
    <text x="4580" y="85" text-anchor="middle" fill="white">
      Monitor system
    </text>
  </g>
  <!-- Z->AA -->
  <line x1="4470" y1="80" x2="4500" y2="80" stroke="#2E7D32" stroke-width="2" marker-end="url(#arrow)"/>

  <!-- AB[Restore normal use] -->
  <g class="node" data-step="AB">
    <rect x="4650" y="60" width="200" height="40" rx="10" fill="#388E3C"/>
    <text x="4750" y="85" text-anchor="middle" fill="white">
      Restore normal use
    </text>
  </g>
  <!-- AA->AB -->
  <line x1="4590" y1="80" x2="4650" y2="80" stroke="#2E7D32" stroke-width="2" marker-end="url(#arrow)"/>

  <!-- AC[End] -->
  <g class="node" data-step="AC">
    <rect x="4850" y="60" width="80" height="40" rx="10" fill="#388E3C"/>
    <text x="4890" y="85" text-anchor="middle" fill="white">
      End
    </text>
  </g>
  <!-- AB->AC -->
  <line x1="4840" y1="80" x2="4850" y2="80" stroke="#2E7D32" stroke-width="2" marker-end="url(#arrow)"/>
</svg>
